<svg width="40" height="40" viewBox="0 0 40 40" fill="none" xmlns="http://www.w3.org/2000/svg">
<circle cx="20" cy="20" r="20" fill="#58E3D0" fill-opacity="0.35"/>
<path d="M30.916 19.5562L29.145 17.1655C29.1052 17.1119 29.0534 17.0683 28.9938 17.0383C28.9343 17.0083 28.8685 16.9926 28.8019 16.9924C28.7352 16.9925 28.6695 17.0081 28.61 17.0382C28.5504 17.0682 28.4987 17.1118 28.459 17.1655L28.3666 17.29C28.0349 17.1305 27.6852 17.0116 27.3252 16.9359C27.2419 16.9177 27.1646 16.8785 27.1006 16.822C27.0367 16.7655 26.9881 16.6935 26.9596 16.613C26.8536 16.312 26.7315 16.017 26.5938 15.7292C26.5549 15.6504 26.5368 15.5631 26.541 15.4753C26.5453 15.3876 26.5718 15.3024 26.6181 15.2278C26.8464 14.8782 27.028 14.5 27.1583 14.103C27.222 13.9045 27.2295 13.6921 27.18 13.4895C27.1305 13.287 27.0259 13.1022 26.8779 12.9557L25.1667 11.2398C25.0224 11.094 24.8413 10.9904 24.6428 10.94C24.4443 10.8897 24.2359 10.8944 24.0398 10.9537C23.6315 11.0797 23.2429 11.2629 22.8857 11.4979C22.8138 11.5442 22.7314 11.5713 22.6461 11.5766C22.5609 11.582 22.4757 11.5654 22.3986 11.5285C22.1116 11.3908 21.8175 11.2687 21.5174 11.1626C21.4347 11.1343 21.3605 11.0854 21.3019 11.0203C21.2433 10.9553 21.2022 10.8763 21.1825 10.7909C21.0976 10.3818 20.9595 9.98563 20.7718 9.61253C20.6768 9.42677 20.5321 9.27114 20.354 9.16299C20.176 9.05484 19.9714 8.99843 19.7632 9.00003H17.3442C17.1392 8.99932 16.9379 9.05455 16.7619 9.1598C16.5859 9.26506 16.4417 9.41638 16.3449 9.59753C16.1451 9.97604 15.9995 10.381 15.9126 10.8003C15.8945 10.8838 15.8554 10.9614 15.799 11.0255C15.7427 11.0897 15.6709 11.1384 15.5905 11.1669C15.2905 11.2734 14.9963 11.3959 14.7093 11.5338C14.6309 11.5728 14.5438 11.591 14.4563 11.5867C14.3689 11.5825 14.284 11.5559 14.2097 11.5095C13.861 11.2805 13.484 11.0983 13.0881 10.9677C12.8901 10.9035 12.6782 10.8957 12.476 10.9452C12.2738 10.9947 12.0893 11.0996 11.9431 11.2481L10.234 12.9642C10.0888 13.109 9.98554 13.2907 9.93535 13.4899C9.88516 13.689 9.88992 13.8981 9.94912 14.0947C10.0746 14.5043 10.2573 14.894 10.4917 15.2522C10.5378 15.3243 10.5648 15.407 10.5701 15.4925C10.5754 15.5779 10.5589 15.6634 10.5222 15.7407C10.3848 16.0285 10.2631 16.3235 10.1574 16.6245C10.1293 16.7075 10.0805 16.782 10.0156 16.8409C9.95076 16.8998 9.87199 16.9411 9.78676 16.9608C9.37884 17.0461 8.98382 17.1845 8.6118 17.3727C8.42654 17.4679 8.27126 17.6128 8.16325 17.7913C8.05524 17.9697 7.99873 18.1747 8.00002 18.3835V20.8094C7.99931 21.0149 8.05435 21.2167 8.15925 21.3932C8.26415 21.5698 8.41495 21.7144 8.59551 21.8115C8.973 22.012 9.37683 22.158 9.79504 22.2451C9.87833 22.2633 9.95562 22.3025 10.0196 22.3591C10.0836 22.4156 10.1321 22.4875 10.1606 22.5681C10.2666 22.8691 10.3887 23.1641 10.5265 23.4519C10.5653 23.5306 10.5835 23.618 10.5792 23.7057C10.575 23.7935 10.5484 23.8787 10.5022 23.9532C10.2737 24.3028 10.0921 24.681 9.96194 25.0781C9.89798 25.2766 9.89026 25.4891 9.93963 25.6918C9.98899 25.8946 10.0935 26.0795 10.2415 26.2262L11.9527 27.9421C12.097 28.0879 12.2781 28.1915 12.4767 28.2419C12.6753 28.2923 12.8838 28.2875 13.0799 28.2281C13.4882 28.1022 13.8767 27.919 14.234 27.6842C14.3058 27.6379 14.3883 27.6107 14.4736 27.6054C14.5588 27.6001 14.644 27.6167 14.7211 27.6536C15.0081 27.7912 15.3022 27.9132 15.6023 28.0192C15.6851 28.0475 15.7593 28.0964 15.818 28.1615C15.8767 28.2265 15.9179 28.3055 15.9377 28.3909C16.0226 28.8001 16.1606 29.1963 16.3484 29.5693C16.4266 29.723 16.5392 29.8564 16.6772 29.9594C16.8153 30.0623 16.9752 30.1319 17.1444 30.1628V30.354C17.1446 30.5253 17.2124 30.6894 17.3331 30.8105C17.4538 30.9317 17.6175 30.9998 17.7882 31H19.2129C19.3836 30.9998 19.5473 30.9317 19.6681 30.8106C19.7888 30.6895 19.8568 30.5253 19.857 30.354V30.1799C20.0475 30.1669 20.2317 30.1056 20.3921 30.0016C20.5526 29.8977 20.6841 29.7545 20.7742 29.5857C20.9742 29.2068 21.1198 28.8015 21.2066 28.3818C21.2247 28.2982 21.2637 28.2207 21.3201 28.1565C21.3765 28.0922 21.4482 28.0435 21.5286 28.0149C21.7876 27.9231 22.0445 27.8173 22.295 27.7013V30.3527C22.2952 30.5239 22.363 30.6881 22.4837 30.8092C22.6044 30.9303 22.7681 30.9984 22.9388 30.9987H24.3635C24.5342 30.9984 24.6979 30.9303 24.8187 30.8092C24.9394 30.6881 25.0074 30.5239 25.0076 30.3527V28.0709C25.0677 28.0305 25.1239 27.9844 25.1753 27.9332L26.8864 26.2171C27.0315 26.0724 27.1347 25.8909 27.1849 25.692C27.2351 25.493 27.2304 25.2842 27.1714 25.0877C27.0458 24.6781 26.8631 24.2885 26.6287 23.9302C26.5821 23.8583 26.5547 23.7756 26.5494 23.69C26.544 23.6044 26.5609 23.5188 26.5983 23.4417C26.7356 23.1539 26.8574 22.8589 26.9631 22.5579C26.9912 22.4749 27.0401 22.4004 27.1049 22.3415C27.1698 22.2827 27.2485 22.2414 27.3337 22.2215C27.3714 22.2135 27.4085 22.2049 27.4456 22.1961V30.3538C27.4457 30.525 27.5136 30.6892 27.6343 30.8103C27.755 30.9314 27.9187 30.9995 28.0894 30.9997H29.5141C29.6848 30.9995 29.8485 30.9314 29.9692 30.8103C30.0899 30.6892 30.1578 30.525 30.1579 30.3538V20.2402H30.5726C30.6518 20.2403 30.7294 20.2182 30.7968 20.1766C30.8643 20.1349 30.9188 20.0753 30.9544 20.0043C30.99 19.9334 31.0052 19.8539 30.9984 19.7748C30.9916 19.6957 30.9632 19.62 30.916 19.5562ZM19.6492 26.7921C19.5359 26.7921 19.4272 26.8372 19.3471 26.9176C19.267 26.9979 19.222 27.1069 19.222 27.2206V30.3524C19.222 30.3536 19.2217 30.3548 19.2213 30.3559C19.2208 30.357 19.2201 30.358 19.2193 30.3589C19.2185 30.3597 19.2175 30.3604 19.2164 30.3608C19.2153 30.3613 19.2141 30.3615 19.2129 30.3615H17.7882C17.787 30.3615 17.7859 30.3613 17.7848 30.3608C17.7837 30.3604 17.7827 30.3597 17.7818 30.3589C17.781 30.358 17.7803 30.357 17.7799 30.3559C17.7794 30.3548 17.7792 30.3536 17.7792 30.3524V27.2206C17.7792 27.1069 17.7341 26.9979 17.654 26.9176C17.5739 26.8372 17.4652 26.7921 17.3519 26.7921H17.1425L18.5007 24.9586L19.8588 26.7921H19.6492ZM24.6508 21.6457L23.9942 20.7595C23.9543 20.706 23.9026 20.6625 23.8431 20.6324C23.7836 20.6024 23.7179 20.5867 23.6513 20.5865C23.5847 20.5867 23.519 20.6025 23.4595 20.6325C23.4 20.6625 23.3483 20.706 23.3084 20.7595L21.5374 23.1506C21.4902 23.2144 21.4616 23.29 21.4548 23.3691C21.4479 23.4483 21.4632 23.5277 21.4988 23.5987C21.5343 23.6696 21.5889 23.7293 21.6563 23.7709C21.7237 23.8126 21.8014 23.8346 21.8806 23.8346H22.2953V24.8338C21.5979 25.3335 20.808 25.6886 19.9721 25.8783L18.8436 24.3539C18.8038 24.3002 18.7521 24.2566 18.6925 24.2266C18.633 24.1965 18.5672 24.1809 18.5006 24.1809C18.4339 24.1809 18.3681 24.1965 18.3086 24.2266C18.249 24.2566 18.1973 24.3002 18.1575 24.3539L17.0459 25.8537C15.8739 25.5689 14.8054 24.9591 13.9627 24.094C13.1199 23.2289 12.5369 22.1434 12.2803 20.9616C12.0238 19.7799 12.1039 18.5495 12.5117 17.4113C12.9195 16.2731 13.6384 15.273 14.5862 14.5252C15.534 13.7775 16.6725 13.3123 17.8715 13.183C19.0705 13.0536 20.2817 13.2652 21.3664 13.7936C22.4511 14.3221 23.3657 15.146 24.0055 16.1711C24.6454 17.1963 24.9847 18.3813 24.9846 19.5908C24.9857 20.2894 24.8729 20.9836 24.6508 21.6457ZM22.1348 27.0733C21.8682 27.2016 21.5949 27.3153 21.3161 27.4139C21.1333 27.4793 20.9702 27.5903 20.8422 27.7364C20.7141 27.8826 20.6254 28.0591 20.5844 28.2493C20.5098 28.6099 20.3848 28.9582 20.2132 29.2838C20.1771 29.3508 20.1261 29.4086 20.0641 29.4525C20.0022 29.4965 19.9309 29.5254 19.8559 29.5372V27.4289H20.2706C20.3498 27.429 20.4275 27.407 20.495 27.3653C20.5625 27.3236 20.617 27.264 20.6526 27.193C20.6882 27.122 20.7035 27.0425 20.6966 26.9633C20.6897 26.8841 20.661 26.8084 20.6137 26.7447L20.3817 26.4319C21.0565 26.2503 21.7008 25.9698 22.2939 25.5995V27.0104C22.2394 27.0275 22.1863 27.0485 22.1348 27.0733ZM24.3726 23.6262V30.3524C24.3726 30.3536 24.3723 30.3548 24.3719 30.3559C24.3714 30.357 24.3707 30.358 24.3699 30.3589C24.369 30.3597 24.368 30.3604 24.3669 30.3608C24.3658 30.3613 24.3647 30.3615 24.3635 30.3615H22.9388C22.9376 30.3615 22.9365 30.3613 22.9354 30.3608C22.9343 30.3604 22.9333 30.3597 22.9324 30.3589C22.9316 30.358 22.9309 30.357 22.9304 30.3559C22.93 30.3548 22.9298 30.3536 22.9298 30.3524V23.6262C22.9298 23.5126 22.8847 23.4036 22.8046 23.3232C22.7245 23.2429 22.6158 23.1977 22.5025 23.1977H22.2931L23.6513 21.3651L25.0094 23.1985H24.7998C24.6866 23.1985 24.5781 23.2436 24.498 23.3238C24.4179 23.4039 24.3728 23.5127 24.3726 23.6262ZM27.2015 21.5973C27.0098 21.64 26.8322 21.7312 26.6854 21.8621C26.5387 21.993 26.4277 22.1593 26.363 22.3453C26.265 22.6247 26.152 22.8986 26.0247 23.1659C25.9412 23.3417 25.9039 23.536 25.9163 23.7304C25.9287 23.9248 25.9904 24.1127 26.0955 24.2765C26.2973 24.5845 26.4546 24.9195 26.5628 25.2717C26.5884 25.358 26.5902 25.4497 26.5679 25.5369C26.5456 25.6241 26.5001 25.7036 26.4362 25.7669L25.0076 27.2008V23.8346H25.4223C25.5015 23.8346 25.5791 23.8126 25.6465 23.7709C25.7139 23.7293 25.7685 23.6696 25.8041 23.5987C25.8397 23.5277 25.8549 23.4483 25.8481 23.3691C25.8412 23.29 25.8126 23.2144 25.7654 23.1506L25.1024 22.2556C25.5712 21.0979 25.7263 19.8365 25.5519 18.5993C25.3775 17.3622 24.8799 16.1933 24.1094 15.2114C23.339 14.2294 22.3233 13.4694 21.1653 13.0085C20.0073 12.5476 18.7484 12.4021 17.5162 12.5869C16.2841 12.7717 15.1226 13.2801 14.1498 14.0606C13.1769 14.8411 12.4272 15.8659 11.9769 17.0309C11.5266 18.1958 11.3916 19.4596 11.5857 20.6938C11.7798 21.928 12.296 23.0888 13.082 24.0582C13.9998 25.1872 15.2409 26.0065 16.6378 26.4054L16.3866 26.7447C16.3393 26.8084 16.3106 26.8841 16.3037 26.9632C16.2968 27.0424 16.312 27.1219 16.3476 27.1929C16.3832 27.2638 16.4377 27.3235 16.5051 27.3652C16.5726 27.4069 16.6502 27.429 16.7294 27.4289H17.1444V29.4981C17.045 29.453 16.9638 29.3755 16.914 29.2782C16.7516 28.9551 16.6322 28.6121 16.5588 28.2578C16.5161 28.0657 16.4251 27.8877 16.2946 27.7407C16.1641 27.5937 15.9983 27.4825 15.813 27.4177C15.5344 27.3194 15.2612 27.2061 14.9948 27.0784C14.8194 26.9947 14.6257 26.9573 14.4318 26.9697C14.238 26.9822 14.0506 27.0441 13.8874 27.1496C13.5803 27.3518 13.2463 27.5095 12.8953 27.618C12.8092 27.6438 12.7178 27.6455 12.6308 27.6232C12.5438 27.6008 12.4645 27.5552 12.4013 27.4911L10.6904 25.7749C10.6254 25.7111 10.5793 25.6305 10.5573 25.542C10.5353 25.4534 10.5382 25.3605 10.5657 25.2736C10.679 24.9298 10.8368 24.6024 11.0352 24.2998C11.1406 24.1334 11.2019 23.9426 11.2132 23.7458C11.2244 23.5489 11.1853 23.3524 11.0995 23.175C10.9715 22.9083 10.8579 22.6349 10.759 22.356C10.694 22.1727 10.5834 22.009 10.4376 21.8806C10.2918 21.7522 10.1158 21.6632 9.92615 21.6222C9.56652 21.5475 9.21923 21.4221 8.89459 21.2499C8.81552 21.207 8.74956 21.1434 8.70379 21.0658C8.65802 20.9881 8.63416 20.8995 8.63477 20.8094V18.3838C8.63377 18.2924 8.65806 18.2026 8.70492 18.1243C8.75178 18.046 8.81938 17.9823 8.9002 17.9402C9.22235 17.7774 9.5644 17.6577 9.91761 17.5841C10.1091 17.5411 10.2866 17.4499 10.4331 17.319C10.5796 17.1881 10.6905 17.0219 10.755 16.836C10.8531 16.5566 10.9662 16.2827 11.0936 16.0155C11.177 15.8396 11.2142 15.6453 11.2018 15.451C11.1893 15.2567 11.1277 15.0688 11.0226 14.9051C10.8209 14.5971 10.6636 14.262 10.5553 13.9099C10.5296 13.8236 10.5278 13.7319 10.5501 13.6447C10.5724 13.5575 10.618 13.478 10.6819 13.4147L12.393 11.6985C12.4567 11.6333 12.5371 11.5871 12.6253 11.565C12.7136 11.5429 12.8062 11.5459 12.8929 11.5735C13.2358 11.6869 13.5623 11.8449 13.8641 12.0435C14.0301 12.1493 14.2202 12.2108 14.4165 12.2221C14.6129 12.2334 14.8088 12.1941 14.9857 12.108C15.252 11.9799 15.5249 11.8662 15.8034 11.7674C15.9861 11.7021 16.1493 11.5912 16.2773 11.445C16.4054 11.2988 16.4941 11.1223 16.535 10.9321C16.6096 10.5714 16.7346 10.2231 16.9062 9.89748C16.949 9.81817 17.0125 9.75203 17.0898 9.70612C17.1672 9.66022 17.2556 9.63629 17.3455 9.6369H19.7646C19.8554 9.63661 19.9447 9.66126 20.0226 9.70819C20.1005 9.75511 20.1641 9.82252 20.2065 9.90311C20.3688 10.2262 20.4883 10.5693 20.5617 10.9235C20.6044 11.1156 20.6954 11.2935 20.8259 11.4405C20.9564 11.5875 21.1222 11.6986 21.3075 11.7634C21.5861 11.8618 21.8592 11.9751 22.1257 12.1029C22.3011 12.1865 22.4948 12.2239 22.6886 12.2114C22.8824 12.1989 23.0698 12.1371 23.2331 12.0317C23.5398 11.8295 23.8734 11.6717 24.2241 11.563C24.3101 11.5372 24.4015 11.5354 24.4885 11.5578C24.5755 11.5802 24.6548 11.6258 24.7178 11.69L26.4287 13.4061C26.4938 13.4699 26.5398 13.5506 26.5619 13.6391C26.5839 13.7276 26.581 13.8205 26.5534 13.9075C26.4404 14.2513 26.2828 14.5788 26.0848 14.8815C25.9794 15.048 25.9181 15.2387 25.9069 15.4356C25.8956 15.6324 25.9347 15.8289 26.0204 16.0064C26.1483 16.2734 26.2617 16.5471 26.3601 16.8264C26.4252 17.0097 26.5359 17.1732 26.6816 17.3016C26.8274 17.43 27.0034 17.5189 27.193 17.5599C27.4633 17.6168 27.7271 17.7016 27.9799 17.813L26.6878 19.5573C26.6409 19.6211 26.6125 19.6966 26.6058 19.7755C26.5991 19.8545 26.6144 19.9337 26.6499 20.0045C26.6855 20.0752 26.7398 20.1347 26.807 20.1763C26.8743 20.218 26.9516 20.2401 27.0306 20.2402H27.4453V21.5381C27.3655 21.5598 27.284 21.5793 27.2015 21.5973ZM29.952 19.6037C29.8387 19.6037 29.73 19.6488 29.6499 19.7292C29.5698 19.8095 29.5247 19.9185 29.5247 20.0322V30.3524C29.5248 30.3548 29.5238 30.3571 29.5222 30.3588C29.5205 30.3605 29.5183 30.3615 29.5159 30.3615H28.0894C28.0871 30.3615 28.0848 30.3605 28.0832 30.3588C28.0815 30.3571 28.0806 30.3548 28.0806 30.3524V20.0322C28.0806 19.9185 28.0356 19.8095 27.9555 19.7292C27.8753 19.6488 27.7667 19.6037 27.6534 19.6037H27.4437L28.8019 17.7702L30.16 19.6037H29.952ZM22.1545 15.4938L19.1691 18.4869C18.9826 18.383 18.7729 18.3285 18.5596 18.3285C18.3463 18.3285 18.1365 18.383 17.9501 18.4869L15.8469 16.3775C15.8177 16.3468 15.7826 16.3222 15.7438 16.3052C15.705 16.2883 15.6632 16.2793 15.6208 16.2787C15.5785 16.2782 15.5365 16.2862 15.4973 16.3022C15.458 16.3182 15.4224 16.342 15.3925 16.372C15.3625 16.402 15.3389 16.4378 15.3229 16.4771C15.3069 16.5164 15.299 16.5586 15.2995 16.601C15.3 16.6435 15.309 16.6854 15.3259 16.7244C15.3428 16.7633 15.3673 16.7985 15.398 16.8277L17.4902 18.9263C17.3719 19.1175 17.3067 19.3369 17.3014 19.5618C17.296 19.7867 17.3507 20.009 17.4598 20.2056C17.5688 20.4022 17.7283 20.5659 17.9216 20.68C18.115 20.794 18.3353 20.8541 18.5596 20.8541C18.7839 20.8541 19.0041 20.794 19.1975 20.68C19.3909 20.5659 19.5503 20.4022 19.6594 20.2056C19.7684 20.009 19.8231 19.7867 19.8178 19.5618C19.8124 19.3369 19.7472 19.1175 19.6289 18.9263L22.6024 15.944C22.6595 15.8838 22.6909 15.8036 22.6899 15.7205C22.6889 15.6374 22.6556 15.5579 22.597 15.4992C22.5384 15.4404 22.4592 15.4069 22.3763 15.4059C22.2935 15.4049 22.2135 15.4364 22.1535 15.4938H22.1545ZM18.5594 20.2161C18.4361 20.2161 18.3156 20.1794 18.2131 20.1106C18.1106 20.0419 18.0307 19.9442 17.9836 19.8299C17.9364 19.7156 17.9241 19.5899 17.9482 19.4686C17.9723 19.3473 18.0317 19.2359 18.1189 19.1485C18.2061 19.0611 18.3172 19.0016 18.4382 18.9774C18.5591 18.9533 18.6845 18.9657 18.7984 19.0131C18.9123 19.0604 19.0097 19.1406 19.0782 19.2434C19.1467 19.3462 19.1832 19.4671 19.1832 19.5908C19.1831 19.7567 19.1173 19.9157 19.0004 20.0329C18.8834 20.1502 18.7248 20.2161 18.5594 20.2161ZM14.3088 19.5908C14.3088 19.6752 14.2753 19.7562 14.2158 19.816C14.1562 19.8757 14.0755 19.9092 13.9912 19.9092H12.9445C12.8603 19.9092 12.7795 19.8757 12.72 19.816C12.6604 19.7562 12.627 19.6752 12.627 19.5908C12.627 19.5063 12.6604 19.4253 12.72 19.3656C12.7795 19.3059 12.8603 19.2724 12.9445 19.2724H13.9912C14.0755 19.2724 14.1562 19.3059 14.2158 19.3656C14.2753 19.4253 14.3088 19.5063 14.3088 19.5908ZM18.2422 15.009V13.9594C18.241 13.9169 18.2483 13.8745 18.2637 13.8348C18.2791 13.7951 18.3022 13.7589 18.3318 13.7283C18.3614 13.6978 18.3968 13.6735 18.4359 13.6569C18.4751 13.6403 18.5171 13.6318 18.5596 13.6318C18.602 13.6318 18.6441 13.6403 18.6832 13.6569C18.7223 13.6735 18.7577 13.6978 18.7873 13.7283C18.8169 13.7589 18.8401 13.7951 18.8555 13.8348C18.8709 13.8745 18.8782 13.9169 18.8769 13.9594V15.009C18.8782 15.0516 18.8709 15.094 18.8555 15.1337C18.8401 15.1734 18.8169 15.2096 18.7873 15.2401C18.7577 15.2707 18.7223 15.295 18.6832 15.3115C18.6441 15.3281 18.602 15.3367 18.5596 15.3367C18.5171 15.3367 18.4751 15.3281 18.4359 15.3115C18.3968 15.295 18.3614 15.2707 18.3318 15.2401C18.3022 15.2096 18.2791 15.1734 18.2637 15.1337C18.2483 15.094 18.241 15.0516 18.2422 15.009ZM23.129 19.2724H24.1757C24.26 19.2724 24.3407 19.3059 24.4003 19.3656C24.4598 19.4253 24.4933 19.5063 24.4933 19.5908C24.4933 19.6752 24.4598 19.7562 24.4003 19.816C24.3407 19.8757 24.26 19.9092 24.1757 19.9092H23.129C23.0448 19.9092 22.964 19.8757 22.9045 19.816C22.8449 19.7562 22.8115 19.6752 22.8115 19.5908C22.8115 19.5063 22.8449 19.4253 22.9045 19.3656C22.964 19.3059 23.0448 19.2724 23.129 19.2724Z" fill="#008572"/>
</svg>
