<svg width="40" height="40" viewBox="0 0 40 40" fill="none" xmlns="http://www.w3.org/2000/svg">
<circle cx="20" cy="20" r="20" fill="#58E3D0" fill-opacity="0.35"/>
<g clip-path="url(#clip0_156_340)">
<path fill-rule="evenodd" clip-rule="evenodd" d="M29 10H11C10.4487 10 10 10.4487 10 11V23C10 23.5513 10.4487 24 11 24H11.3333V23.3333H11C10.8167 23.3333 10.6667 23.1833 10.6667 23V11C10.6667 10.8167 10.8167 10.6667 11 10.6667H29C29.1833 10.6667 29.3333 10.8167 29.3333 11V23C29.3333 23.1833 29.1833 23.3333 29 23.3333H25.792V24H29C29.5513 24 30 23.5513 30 23V11C30 10.4487 29.5513 10 29 10Z" fill="#008572"/>
<path fill-rule="evenodd" clip-rule="evenodd" d="M13.333 14.3333H19.9997C20.183 14.3333 20.333 14.4833 20.333 14.6666V17.1113H12.9997V14.6666C12.9997 14.4833 13.1497 14.3333 13.333 14.3333ZM12.9997 26.6666V17.7779H20.333V18.8353H20.9997V14.6666C20.9997 14.1153 20.551 13.6666 19.9997 13.6666H13.333C12.7817 13.6666 12.333 14.1153 12.333 14.6666V26.6666C12.333 27.2179 12.7817 27.6666 13.333 27.6666H14.9997V27H13.333C13.1497 27 12.9997 26.8499 12.9997 26.6666Z" fill="#008572"/>
<path fill-rule="evenodd" clip-rule="evenodd" d="M19.9998 20.3008C17.6065 20.3008 15.6592 22.2475 15.6592 24.6408C15.6592 25.2261 15.7739 25.7942 16.0005 26.3302C16.0545 26.4575 16.1785 26.5341 16.3079 26.5341C16.3512 26.5341 16.3952 26.5255 16.4372 26.5082C16.6072 26.4362 16.6865 26.2401 16.6152 26.0708C16.4232 25.6175 16.3258 25.1362 16.3258 24.6408C16.3258 22.6155 17.9739 20.9675 19.9998 20.9675C22.0258 20.9675 23.6738 22.6156 23.6738 24.6408C23.6738 25.1182 23.5838 25.5815 23.4065 26.0175C23.3371 26.1882 23.4192 26.3828 23.5898 26.4522C23.7632 26.5215 23.9552 26.4388 24.0238 26.2688C24.2345 25.7522 24.3405 25.2035 24.3405 24.6408C24.3405 22.2475 22.3932 20.3008 19.9998 20.3008Z" fill="#008572"/>
<path fill-rule="evenodd" clip-rule="evenodd" d="M20 22.6667C18.8973 22.6667 18 23.6367 18 24.8294V30H18.6667V24.8294C18.6667 24.0047 19.2647 23.3333 20 23.3333C20.7354 23.3333 21.3333 24.0047 21.3333 24.8294V30H22V24.8294C22 23.6367 21.1027 22.6667 20 22.6667Z" fill="#008572"/>
<path fill-rule="evenodd" clip-rule="evenodd" d="M19.9997 24.3333C19.6317 24.3333 19.333 24.632 19.333 25V26H20.6663V25C20.6663 24.632 20.3676 24.3333 19.9997 24.3333Z" fill="#008572"/>
<path fill-rule="evenodd" clip-rule="evenodd" d="M26.8968 18.3618C27.0348 17.8218 26.7635 17.1365 26.1388 16.9765C25.7722 16.8831 25.4948 17.0018 25.3195 17.1292C25.2269 16.9331 25.0408 16.6958 24.6742 16.6025C24.0495 16.4424 23.4822 16.9138 23.3442 17.4538C23.1435 18.2405 24.3841 19.6804 24.5268 19.8418C24.5502 19.8678 24.5802 19.8858 24.6128 19.8944C24.6455 19.9031 24.6808 19.9018 24.7142 19.8898C24.9162 19.8158 26.6962 19.1484 26.8968 18.3618" fill="#008572"/>
<path fill-rule="evenodd" clip-rule="evenodd" d="M26.6656 15.9674C26.679 15.9767 26.695 15.9814 26.7104 15.9814C26.7263 15.9814 26.7417 15.9767 26.755 15.9674C26.8376 15.9114 27.5604 15.4067 27.5604 15.0307C27.5604 14.772 27.3596 14.4954 27.061 14.4954C26.8857 14.4954 26.775 14.5807 26.7104 14.6581C26.6464 14.5807 26.5357 14.4954 26.3596 14.4954C26.061 14.4954 25.8604 14.7721 25.8604 15.0307C25.8604 15.4067 26.583 15.9114 26.6656 15.9674Z" fill="#008572"/>
<path fill-rule="evenodd" clip-rule="evenodd" d="M24.3105 15.4604C24.3258 15.4657 24.3418 15.4664 24.3572 15.4623C24.3725 15.4584 24.3865 15.4504 24.3972 15.4384C24.4632 15.363 25.0379 14.695 24.9445 14.3304C24.8805 14.0804 24.6172 13.8617 24.3278 13.9364C24.1579 13.9797 24.0712 14.0897 24.0285 14.181C23.9472 14.1217 23.8185 14.067 23.6485 14.1104C23.3592 14.1843 23.2332 14.5024 23.2978 14.753C23.3912 15.1177 24.2165 15.4264 24.3105 15.4604Z" fill="#008572"/>
<path fill-rule="evenodd" clip-rule="evenodd" d="M16.3333 16.3145H17C17.184 16.3145 17.3333 16.1651 17.3333 15.9812C17.3333 15.7972 17.184 15.6478 17 15.6478H16.3333C16.1494 15.6478 16 15.7972 16 15.9812C16 16.1651 16.1493 16.3145 16.3333 16.3145Z" fill="#008572"/>
</g>
<defs>
<clipPath id="clip0_156_340">
<rect width="20" height="20" fill="white" transform="translate(10 10)"/>
</clipPath>
</defs>
</svg>
