<svg width="40" height="40" viewBox="0 0 40 40" fill="none" xmlns="http://www.w3.org/2000/svg">
<circle cx="20" cy="20" r="20" fill="#58E3D0" fill-opacity="0.35"/>
<mask id="mask0_156_357" style="mask-type:luminance" maskUnits="userSpaceOnUse" x="7" y="7" width="27" height="27">
<path d="M34 7H7V34H34V7Z" fill="white"/>
</mask>
<g mask="url(#mask0_156_357)">
<path d="M29.9206 20.4877V12.7657C29.9206 11.8351 29.1638 11.0782 28.2331 11.0782H20.4989H12.7646C11.834 11.0782 11.0771 11.8351 11.0771 12.7657V20.5V28.2342C11.0771 29.1649 11.834 29.9217 12.7646 29.9217H20.4989L20.5001 29.9213L20.5014 29.9217H28.2356C29.1663 29.9217 29.9231 29.1649 29.9231 28.2342V20.5C29.9231 20.4958 29.921 20.492 29.9206 20.4877ZM29.0769 12.7657V20.0781H26.1263H26.1237C25.8904 20.0781 25.7019 20.2671 25.7019 20.5V21.5614C25.7019 21.9643 25.404 22.3073 25.0374 22.3267C24.8497 22.3368 24.6586 22.2689 24.5172 22.1352C24.3759 22.001 24.2979 21.82 24.2979 21.6251V20.5C24.2979 20.2671 24.1093 20.0781 23.876 20.0781H23.8735H20.9203V17.5469H21.6236C22.0459 17.5469 22.4551 17.3709 22.7458 17.0647C23.0403 16.7537 23.1904 16.3462 23.1681 15.9176C23.1626 15.8151 23.147 15.7151 23.1221 15.6189C22.9466 14.9456 22.3117 14.4532 21.5599 14.4532H20.9203V11.922H28.2331C28.6984 11.922 29.0769 12.3004 29.0769 12.7657ZM11.9209 12.7657C11.9209 12.3004 12.2993 11.922 12.7646 11.922H20.077V14.8751C20.077 15.108 20.266 15.297 20.4989 15.297H21.5603C21.9632 15.297 22.307 15.5953 22.3256 15.9619C22.3357 16.1572 22.2678 16.3428 22.1341 16.4837C21.9999 16.6251 21.8189 16.7031 21.624 16.7031H20.4989C20.266 16.7031 20.077 16.8921 20.077 17.125V20.0781H17.5458V19.3748C17.5458 18.9525 17.3698 18.5433 17.0636 18.2527C16.7526 17.9578 16.3451 17.8059 15.9165 17.8304C15.0951 17.8734 14.4521 18.58 14.4521 19.4385V20.0781H11.9209V12.7657ZM20.077 29.078H12.7646C12.2993 29.078 11.9209 28.6995 11.9209 28.2342V20.9219H14.874C15.1069 20.9219 15.2959 20.7329 15.2959 20.5V19.4385C15.2959 19.0352 15.5942 18.6918 15.9608 18.6728C16.0608 18.6686 16.1557 18.6834 16.2434 18.7155C16.316 18.7425 16.3822 18.7842 16.4434 18.8344C16.4565 18.845 16.4704 18.8534 16.4826 18.8652C16.624 18.9994 16.702 19.1808 16.702 19.3753V20.5C16.702 20.7329 16.891 20.9219 17.1239 20.9219H20.077V23.4531H19.3763H19.3737C18.9514 23.4531 18.5422 23.629 18.2516 23.9357C17.9567 24.2462 17.8065 24.6538 17.8293 25.0828C17.8723 25.9038 18.5785 26.5471 19.4374 26.5471H19.44H20.077V29.078ZM29.0794 28.2342C29.0794 28.6995 28.701 29.078 28.2356 29.078H20.9233V26.1248C20.9233 25.8915 20.7343 25.703 20.5014 25.703H20.4989H19.44C19.0367 25.703 18.6933 25.4047 18.6743 25.0381C18.6641 24.8428 18.7321 24.6576 18.8662 24.5162C19.0004 24.3749 19.1818 24.2969 19.3767 24.2969H20.4993H20.5018C20.7347 24.2969 20.9237 24.1083 20.9237 23.875V20.9219H23.4524V21.6251C23.4524 22.0474 23.6284 22.4566 23.9351 22.7473C24.0903 22.8945 24.2709 23.0025 24.4649 23.0743C24.47 23.076 24.4751 23.0768 24.4801 23.0785C24.5696 23.1105 24.6615 23.1342 24.756 23.1489C24.7775 23.1523 24.7999 23.1523 24.8214 23.1553C24.8796 23.162 24.9374 23.1717 24.9973 23.1717C25.0252 23.1717 25.0534 23.1709 25.0813 23.1696H25.0821H25.0838C25.9052 23.1266 26.5486 22.4204 26.5486 21.5614V20.9219H29.0798L29.0794 28.2342Z" fill="#008572"/>
</g>
</svg>
