<svg width="16" height="13" viewBox="0 0 16 13" fill="none" xmlns="http://www.w3.org/2000/svg">
<g clip-path="url(#clip0_156_396)">
<path fill-rule="evenodd" clip-rule="evenodd" d="M15.9298 2.03232C13.5439 3.16031 12.351 4.48568 12.351 6.00846C13.3679 6.12126 14.2088 6.52075 14.8738 7.20694C15.5387 7.89314 15.8712 8.68742 15.8712 9.58981C15.8712 10.5486 15.5485 11.357 14.9031 12.015C14.2577 12.673 13.4461 13.002 12.4683 13.002C11.3731 13.002 10.4246 12.5743 9.62279 11.7189C8.82096 10.8635 8.42005 9.82481 8.42005 8.60282C8.42005 4.93686 10.5517 2.06993 14.8151 0.00195312L15.9298 2.03232ZM7.50978 2.03232C5.10429 3.16031 3.90156 4.48568 3.90156 6.00846C4.93808 6.12126 5.78878 6.52075 6.45372 7.20694C7.11865 7.89314 7.45111 8.68742 7.45111 9.58981C7.45111 10.5486 7.12354 11.357 6.46838 12.015C5.81323 12.673 4.99675 13.002 4.0189 13.002C2.92372 13.002 1.98012 12.5743 1.18807 11.7189C0.39602 10.8635 0 9.82481 0 8.60282C0 4.93686 2.12188 2.06993 6.36571 0.00195312L7.50978 2.03232Z" fill="#1DB5BE"/>
</g>
<defs>
<clipPath id="clip0_156_396">
<rect width="16" height="13" fill="white" transform="translate(0 0.00195312)"/>
</clipPath>
</defs>
</svg>
