<svg width="125" height="31" viewBox="0 0 125 31" fill="none" xmlns="http://www.w3.org/2000/svg">
<path d="M22.7941 2.21429H3.67647C1.64601 2.21429 0 3.86658 0 5.90477V25.0952C0 27.1334 1.64601 28.7857 3.67647 28.7857H22.7941C24.8246 28.7857 26.4706 27.1334 26.4706 25.0952V5.90477C26.4706 3.86658 24.8246 2.21429 22.7941 2.21429Z" fill="url(#paint0_linear_156_450)"/>
<path d="M13.0705 22.6062C12.5168 22.6446 11.9667 22.7269 11.4249 22.8524C10.9244 22.9575 10.4241 23.0661 9.92024 23.1509C9.51885 23.2344 9.10554 23.2335 8.70429 23.1486C8.29414 23.0473 7.93193 22.796 7.68326 22.4399C7.43458 22.0837 7.31565 21.6463 7.34798 21.2064C7.3998 20.7001 7.56723 20.2144 7.83627 19.7902C8.10112 19.3507 8.43017 18.9575 8.81157 18.6248C9.22377 18.28 9.60539 17.897 9.95208 17.4807C10.2605 17.0792 10.5438 16.6565 10.835 16.2407C11.0786 15.864 11.3464 15.5052 11.6367 15.1667C12.0001 14.7375 12.4886 14.4458 13.0263 14.3366C13.7697 14.2085 14.6076 14.411 15.1047 15.2378C15.3668 15.674 15.6127 16.1207 15.87 16.5601C16.3901 17.4512 17.0237 18.2638 17.7535 18.9755C18.1316 19.3261 18.4372 19.7538 18.6518 20.2323C18.9538 20.9439 18.9877 21.6569 18.6412 22.3648C18.5241 22.622 18.3402 22.8397 18.1102 22.9926C17.8805 23.1455 17.6143 23.2275 17.342 23.2292C16.8836 23.2363 16.4258 23.19 15.9771 23.0911C15.2338 22.9576 14.4899 22.8268 13.7459 22.6986C13.5219 22.66 13.2957 22.6366 13.0705 22.6062Z" fill="white"/>
<path d="M12.4459 10.2902C12.9036 11.8862 12.4215 13.4481 11.3692 13.7791C10.3168 14.1099 9.09271 13.084 8.63492 11.4879C8.17712 9.89189 8.65918 8.33001 9.71154 7.99905C10.7639 7.66823 11.9881 8.69411 12.4459 10.2902Z" fill="white"/>
<path d="M16.7711 7.8331C17.8227 8.16635 18.3014 9.72948 17.8402 11.3244C17.3791 12.9195 16.1528 13.9423 15.1012 13.6091C14.0495 13.2759 13.5708 11.7127 14.032 10.1178C14.4931 8.52277 15.7195 7.49985 16.7711 7.8331Z" fill="white"/>
<path d="M19.8994 12.8187C20.7753 13.0963 21.174 14.3982 20.7899 15.7267C20.4057 17.0553 19.3844 17.9072 18.5084 17.6296C17.6325 17.3521 17.2338 16.0501 17.6179 14.7216C18.0019 13.393 19.0234 12.5411 19.8994 12.8187Z" fill="white"/>
<path d="M8.93821 14.6992C9.32932 16.0627 8.91755 17.397 8.01865 17.6796C7.11965 17.9621 6.07399 17.086 5.68294 15.7225C5.2919 14.3591 5.70363 13.0247 6.60253 12.7422C7.50152 12.4596 8.54718 13.3359 8.93821 14.6992Z" fill="white"/>
<path d="M42.001 16.7142C42.6702 16.7142 43.2577 16.628 43.7639 16.4558C44.2786 16.2836 44.7032 16.0425 45.0378 15.7325C45.3809 15.4139 45.6382 15.0307 45.8099 14.5829C45.9814 14.1351 46.0672 13.6357 46.0672 13.0846C46.0672 12.5421 45.9814 12.0555 45.8099 11.625C45.6468 11.1945 45.3981 10.8285 45.0635 10.5271C44.729 10.2257 44.3043 9.99751 43.7896 9.84251C43.2835 9.67887 42.6873 9.59709 42.001 9.59709H39.2474V16.7142H42.001ZM42.001 7.23334C43.2106 7.23334 44.2571 7.37542 45.1407 7.65959C46.0329 7.94376 46.7663 8.34417 47.3411 8.86084C47.9244 9.36887 48.3577 9.98459 48.6407 10.7079C48.9238 11.4226 49.0654 12.2149 49.0654 13.0846C49.0654 13.9716 48.9152 14.7853 48.615 15.5258C48.3147 16.2578 47.8687 16.8907 47.2768 17.4246C46.6849 17.9499 45.9471 18.3632 45.0635 18.6646C44.1885 18.9574 43.1677 19.1038 42.001 19.1038H39.2474V25.8333H36.2363V7.23334H42.001ZM59.3842 17.7604C59.3842 17.2954 59.3156 16.8649 59.1783 16.4688C59.0496 16.0641 58.8566 15.7153 58.5993 15.4225C58.3419 15.1211 58.0202 14.8886 57.6342 14.725C57.2568 14.5528 56.8193 14.4667 56.3217 14.4667C55.318 14.4667 54.5288 14.7551 53.954 15.3321C53.3793 15.9091 53.0147 16.7185 52.8603 17.7604H59.3842ZM52.7831 19.4654C52.8174 20.2146 52.9332 20.8647 53.1305 21.4158C53.3278 21.9583 53.5895 22.4104 53.9154 22.7721C54.25 23.1338 54.6446 23.405 55.0993 23.5858C55.5625 23.758 56.0772 23.8442 56.6434 23.8442C57.1838 23.8442 57.6513 23.7839 58.046 23.6633C58.4406 23.5342 58.7837 23.3964 59.0754 23.25C59.3671 23.095 59.6158 22.9572 59.8217 22.8367C60.0276 22.7075 60.2163 22.6429 60.3879 22.6429C60.6109 22.6429 60.7825 22.7291 60.9026 22.9013L61.6875 23.9217C61.3615 24.3092 60.9927 24.6364 60.5809 24.9033C60.1691 25.1703 59.7316 25.3899 59.2684 25.5621C58.8052 25.7257 58.3291 25.842 57.8401 25.9108C57.3511 25.9883 56.875 26.0271 56.4118 26.0271C55.5024 26.0271 54.6575 25.8764 53.8768 25.575C53.1048 25.265 52.4314 24.8129 51.8566 24.2188C51.2904 23.6246 50.8443 22.8883 50.5184 22.01C50.201 21.1317 50.0423 20.1199 50.0423 18.9746C50.0423 18.0618 50.1838 17.2093 50.4669 16.4171C50.7586 15.6249 51.1704 14.936 51.7022 14.3504C52.2426 13.7649 52.8946 13.3042 53.6581 12.9683C54.4302 12.6239 55.3009 12.4517 56.2702 12.4517C57.0766 12.4517 57.8229 12.5851 58.5092 12.8521C59.1954 13.1104 59.7874 13.4936 60.2849 14.0017C60.7825 14.5097 61.1685 15.1341 61.443 15.8746C61.7261 16.6066 61.8677 17.4418 61.8677 18.3804C61.8677 18.811 61.8204 19.0995 61.7261 19.2458C61.6318 19.3922 61.4602 19.4654 61.2114 19.4654H52.7831ZM68.5297 26.04C67.4402 26.04 66.5996 25.7343 66.0077 25.1229C65.4243 24.5029 65.1327 23.6332 65.1327 22.5138V14.8413H63.6915C63.5371 14.8413 63.404 14.7939 63.2926 14.6992C63.181 14.5958 63.1253 14.4451 63.1253 14.2471V13.1233L65.2485 12.8133L65.8532 9.00292C65.8961 8.85656 65.969 8.74031 66.072 8.65417C66.1749 8.55947 66.3121 8.51209 66.4838 8.51209H67.8992V12.8392H71.5407V14.8413H67.8992V22.32C67.8992 22.7936 68.015 23.1553 68.2466 23.405C68.4782 23.6547 68.7871 23.7796 69.1731 23.7796C69.3875 23.7796 69.572 23.7538 69.7264 23.7021C69.8808 23.6418 70.0138 23.5816 70.1253 23.5213C70.2368 23.4524 70.3312 23.3921 70.4084 23.3404C70.4941 23.2801 70.5757 23.25 70.6529 23.25C70.8073 23.25 70.9316 23.3361 71.026 23.5083L71.8496 24.8646C71.4206 25.2435 70.9145 25.5363 70.3312 25.7429C69.7478 25.941 69.1474 26.04 68.5297 26.04ZM87.1039 21.6871C87.2664 21.6871 87.4083 21.7517 87.5282 21.8808L88.7252 23.1854C87.9701 24.0982 87.0436 24.8043 85.9458 25.3038C84.8473 25.7946 83.5348 26.04 82.0083 26.04C80.6524 26.04 79.426 25.8075 78.3282 25.3425C77.2385 24.8689 76.3076 24.2145 75.5355 23.3792C74.7635 22.5353 74.1671 21.5321 73.7473 20.3696C73.3354 19.2071 73.1295 17.9283 73.1295 16.5333C73.1295 15.1383 73.3482 13.8596 73.7855 12.6971C74.2318 11.526 74.8539 10.5228 75.6517 9.68751C76.4576 8.84364 77.4186 8.18917 78.534 7.72417C79.6576 7.25917 80.8929 7.02667 82.2399 7.02667C83.5782 7.02667 84.7576 7.24626 85.7782 7.68542C86.8076 8.11595 87.7002 8.69292 88.4546 9.41625L87.4642 10.8242C87.3951 10.9189 87.3142 11.0007 87.2193 11.0696C87.1252 11.1385 86.9966 11.1729 86.8333 11.1729C86.662 11.1729 86.4649 11.0954 86.2414 10.9404C86.0274 10.7768 85.748 10.6003 85.4054 10.4108C85.0708 10.2128 84.6458 10.0363 84.1311 9.88126C83.6252 9.71762 82.9907 9.63584 82.2267 9.63584C81.3436 9.63584 80.5326 9.79084 79.7951 10.1008C79.0568 10.4108 78.4223 10.8629 77.8907 11.4571C77.3583 12.0513 76.9429 12.7746 76.6421 13.6271C76.351 14.4796 76.2046 15.4483 76.2046 16.5333C76.2046 17.627 76.359 18.6043 76.6679 19.4654C76.9767 20.3179 77.4017 21.0413 77.9421 21.6354C78.4826 22.221 79.1171 22.6688 79.8466 22.9788C80.5752 23.2888 81.3605 23.4438 82.201 23.4438C82.7157 23.4438 83.1745 23.4179 83.5782 23.3663C83.9899 23.306 84.3671 23.2155 84.7105 23.095C85.0532 22.9658 85.3752 22.8066 85.6752 22.6171C85.984 22.4276 86.2885 22.1951 86.5892 21.9196C86.7605 21.7646 86.9318 21.6871 87.1039 21.6871ZM97.8238 20.0725C96.8377 20.107 96.0054 20.1888 95.3274 20.3179C94.6502 20.4385 94.101 20.5978 93.6804 20.7958C93.2605 20.9853 92.9561 21.2135 92.7671 21.4804C92.587 21.7474 92.4966 22.0401 92.4966 22.3588C92.4966 22.6688 92.5443 22.9357 92.6385 23.1596C92.7414 23.3749 92.8789 23.5557 93.0502 23.7021C93.2304 23.8399 93.4363 23.9432 93.6679 24.0121C93.9083 24.0724 94.1693 24.1025 94.4524 24.1025C95.173 24.1025 95.7907 23.9691 96.3054 23.7021C96.8289 23.4266 97.3348 23.0304 97.8238 22.5138V20.0725ZM90.4892 14.4925C91.9738 13.1061 93.7407 12.4129 95.7907 12.4129C96.5458 12.4129 97.2149 12.5378 97.798 12.7875C98.3899 13.0286 98.8833 13.373 99.2782 13.8208C99.6811 14.2686 99.9855 14.8025 100.191 15.4225C100.406 16.0339 100.513 16.7142 100.513 17.4633V25.8333H99.2782C99.012 25.8333 98.8105 25.7946 98.673 25.7171C98.5363 25.631 98.4201 25.463 98.326 25.2133L98.0554 24.1413C97.7208 24.4426 97.3907 24.7139 97.0649 24.955C96.7392 25.1875 96.4002 25.3855 96.048 25.5492C95.7054 25.7128 95.3318 25.8333 94.9289 25.9108C94.5341 25.997 94.0965 26.04 93.6164 26.04C93.0848 26.04 92.587 25.9668 92.1238 25.8204C91.6693 25.6741 91.2745 25.4545 90.9399 25.1617C90.6054 24.8603 90.3392 24.49 90.1421 24.0508C89.9532 23.6117 89.859 23.095 89.859 22.5008C89.859 21.9928 89.9921 21.4976 90.2576 21.0154C90.5326 20.5332 90.9782 20.1026 91.5958 19.7238C92.2223 19.3363 93.0414 19.0176 94.0539 18.7679C95.0745 18.5182 96.3311 18.3761 97.8238 18.3417V17.4633C97.8238 16.5161 97.6223 15.81 97.2193 15.345C96.8164 14.88 96.2245 14.6475 95.4436 14.6475C94.912 14.6475 94.4657 14.7164 94.1054 14.8542C93.7451 14.9833 93.4319 15.1254 93.1657 15.2804C92.9002 15.4354 92.6642 15.5818 92.4583 15.7196C92.2524 15.8488 92.0333 15.9133 91.8017 15.9133C91.6135 15.9133 91.4502 15.866 91.3127 15.7713C91.1841 15.6679 91.0774 15.543 90.9914 15.3967L90.4892 14.4925ZM106.366 15.0996C106.778 14.2643 107.276 13.6099 107.859 13.1363C108.442 12.6541 109.141 12.4129 109.956 12.4129C110.239 12.4129 110.505 12.4474 110.754 12.5163C111.003 12.5766 111.226 12.6713 111.423 12.8004L111.23 14.8929C111.196 15.0393 111.14 15.1426 111.063 15.2029C110.994 15.2546 110.9 15.2804 110.78 15.2804C110.651 15.2804 110.467 15.2589 110.227 15.2158C109.986 15.1642 109.733 15.1383 109.467 15.1383C109.081 15.1383 108.738 15.1943 108.438 15.3063C108.147 15.4182 107.88 15.5818 107.64 15.7971C107.408 16.0124 107.202 16.275 107.022 16.585C106.842 16.895 106.675 17.248 106.521 17.6442V25.8333H103.754V12.6583H105.363C105.655 12.6583 105.856 12.7143 105.967 12.8263C106.079 12.9296 106.156 13.1147 106.199 13.3817L106.366 15.0996ZM121.411 17.7604C121.411 17.2954 121.341 16.8649 121.205 16.4688C121.076 16.0641 120.883 15.7153 120.625 15.4225C120.368 15.1211 120.047 14.8886 119.661 14.725C119.283 14.5528 118.845 14.4667 118.348 14.4667C117.344 14.4667 116.555 14.7551 115.98 15.3321C115.405 15.9091 115.041 16.7185 114.886 17.7604H121.411ZM114.809 19.4654C114.844 20.2146 114.959 20.8647 115.157 21.4158C115.354 21.9583 115.616 22.4104 115.941 22.7721C116.276 23.1338 116.671 23.405 117.125 23.5858C117.588 23.758 118.103 23.8442 118.669 23.8442C119.21 23.8442 119.677 23.7839 120.072 23.6633C120.466 23.5342 120.81 23.3964 121.102 23.25C121.393 23.095 121.642 22.9572 121.848 22.8367C122.054 22.7075 122.242 22.6429 122.414 22.6429C122.637 22.6429 122.808 22.7291 122.929 22.9013L123.713 23.9217C123.388 24.3092 123.019 24.6364 122.607 24.9033C122.195 25.1703 121.758 25.3899 121.294 25.5621C120.831 25.7257 120.355 25.842 119.866 25.9108C119.377 25.9883 118.901 26.0271 118.438 26.0271C117.529 26.0271 116.683 25.8764 115.903 25.575C115.131 25.265 114.458 24.8129 113.883 24.2188C113.316 23.6246 112.871 22.8883 112.544 22.01C112.227 21.1317 112.069 20.1199 112.069 18.9746C112.069 18.0618 112.21 17.2093 112.493 16.4171C112.785 15.6249 113.197 14.936 113.728 14.3504C114.269 13.7649 114.921 13.3042 115.684 12.9683C116.456 12.6239 117.327 12.4517 118.297 12.4517C119.102 12.4517 119.849 12.5851 120.536 12.8521C121.222 13.1104 121.813 13.4936 122.311 14.0017C122.808 14.5097 123.194 15.1341 123.469 15.8746C123.752 16.6066 123.894 17.4418 123.894 18.3804C123.894 18.811 123.847 19.0995 123.752 19.2458C123.658 19.3922 123.486 19.4654 123.238 19.4654H114.809Z" fill="#FF6C5A"/>
<defs>
<linearGradient id="paint0_linear_156_450" x1="15.2807" y1="22.2636" x2="16.4931" y2="50.284" gradientUnits="userSpaceOnUse">
<stop stop-color="#FF6C5A"/>
<stop offset="0.697109" stop-color="#FF6C5A" stop-opacity="0"/>
</linearGradient>
</defs>
</svg>
