<svg width="59" height="45" viewBox="0 0 59 45" fill="none" xmlns="http://www.w3.org/2000/svg">
<rect width="59" height="45" fill="#F5F5F5"/>
<g id="Desktop 1440 " clip-path="url(#clip0_0_1)">
<rect width="1440" height="3963" transform="translate(-1214 -3596)" fill="white"/>
<rect id="Rectangle 851" x="-1214" y="-141" width="1443" height="508" fill="#1E2643"/>
<g id="Group 2179">
<g id="Group 9">
<g id="CampoTXT">
<rect x="-417" width="476" height="45" rx="5" fill="white"/>
<rect id="CampoTXT_2" x="-416.5" y="0.5" width="475" height="44" rx="1.5" stroke="#ADADAD"/>
</g>
</g>
<g id="Btn Enviar">
<g id="Group 209">
<path id="Rectangle 127" d="M0 0H57C58.1046 0 59 0.895431 59 2V43C59 44.1046 58.1046 45 57 45H0V0Z" fill="#12D1B6"/>
</g>
<path id="Icone enviar" d="M41.3222 10.2736C41.8153 10.6153 42.0741 11.206 41.9814 11.7967L38.8563 32.105C38.7831 32.5785 38.495 32.9935 38.0751 33.2278C37.6551 33.4621 37.1522 33.4914 36.7078 33.3059L30.8679 30.8796L27.5231 34.4971C27.0886 34.9706 26.405 35.1268 25.8044 34.8925C25.2038 34.6582 24.8131 34.0772 24.8131 33.4328V29.3516C24.8131 29.1564 24.8864 28.9709 25.0182 28.8293L33.2019 19.9005C33.4851 19.5929 33.4754 19.1194 33.1824 18.8265C32.8894 18.5336 32.4158 18.514 32.1082 18.7923L22.1764 27.6137L17.8648 25.456C17.3472 25.1972 17.0152 24.6798 17.0005 24.1037C16.9859 23.5277 17.2886 22.9907 17.7867 22.7026L39.662 10.2052C40.1845 9.90743 40.829 9.93672 41.3222 10.2736Z" fill="white"/>
</g>
</g>
</g>
<defs>
<clipPath id="clip0_0_1">
<rect width="1440" height="3963" fill="white" transform="translate(-1214 -3596)"/>
</clipPath>
</defs>
</svg>
