<svg xmlns="http://www.w3.org/2000/svg" width="19" height="19" viewBox="0 0 19 19" fill="none">
<path d="M14.0593 10.9174C14.0223 10.8996 12.6371 10.2175 12.391 10.129C12.2905 10.0929 12.1829 10.0576 12.0684 10.0576C11.8813 10.0576 11.7242 10.1509 11.6018 10.334C11.4634 10.5396 11.0446 11.0292 10.9152 11.1755C10.8983 11.1948 10.8752 11.2179 10.8614 11.2179C10.849 11.2179 10.6346 11.1296 10.5697 11.1014C9.08381 10.456 7.95596 8.90383 7.80131 8.64209C7.78608 8.61614 7.79291 8.56168 7.81312 8.53939C7.82902 8.52186 7.84694 8.5039 7.8593 8.4915C7.93474 8.41686 8.01648 8.31847 8.09557 8.22328C8.13301 8.17819 8.17052 8.13303 8.20734 8.09047C8.32208 7.95697 8.37316 7.85334 8.43238 7.73329L8.46341 7.67093C8.60801 7.38364 8.48451 7.14121 8.4446 7.06293C8.41184 6.99741 7.82697 5.58586 7.76479 5.43756C7.61526 5.07971 7.41767 4.91309 7.1431 4.91309C7.11762 4.91309 7.1431 4.91309 7.03625 4.91759C6.90615 4.92308 6.19766 5.01635 5.88441 5.21382C5.55222 5.42325 4.99023 6.09084 4.99023 7.26489C4.99023 8.32155 5.66079 9.31924 5.94869 9.69868C5.95584 9.70825 5.96898 9.72768 5.98804 9.75556C7.0906 11.3658 8.46508 12.559 9.85843 13.1157C11.1998 13.6515 11.8351 13.7134 12.1962 13.7134H12.1962C12.348 13.7134 12.4695 13.7015 12.5766 13.691L12.6446 13.6845C13.108 13.6434 14.1263 13.1157 14.358 12.472C14.5405 11.965 14.5886 11.411 14.4672 11.21C14.384 11.0733 14.2407 11.0045 14.0593 10.9174Z" fill="#1E2643"/>
<path d="M9.66865 0C4.52285 0 0.336434 4.15496 0.336434 9.26208C0.336434 10.141 0.461602 11.0101 0.704903 11.8442C1.11317 13.2437 1.34661 14.7403 0.878542 16.1211L0.0130636 18.6741C-0.0167936 18.7622 0.00541425 18.8597 0.0706188 18.9261C0.117687 18.9741 0.181535 19 0.246739 19C0.271723 19 0.296892 18.9963 0.321444 18.9884L3.24143 18.0605C4.52669 17.6521 5.90673 17.8444 7.20859 18.1963C8.00673 18.4121 8.83504 18.5231 9.66871 18.5231C14.814 18.5232 19 14.3686 19 9.26208C19 4.15496 14.814 0 9.66865 0ZM9.66865 16.5938C8.21657 16.5938 6.81013 16.1745 5.60117 15.3812C5.56051 15.3545 5.51332 15.3408 5.46582 15.3408C5.44071 15.3408 5.41554 15.3446 5.39106 15.3524L5.28822 15.3851C4.30703 15.697 3.38811 14.7604 3.71862 13.7853C3.74441 13.7092 3.73151 13.6252 3.68401 13.5603C2.76338 12.3024 2.27672 10.8161 2.27672 9.26208C2.27672 5.21884 5.59271 1.92937 9.66859 1.92937C13.744 1.92937 17.0596 5.21884 17.0596 9.26208C17.0597 13.3048 13.7441 16.5938 9.66865 16.5938Z" fill="#1E2643"/>
</svg>