<svg xmlns="http://www.w3.org/2000/svg" width="40" height="40" viewBox="0 0 40 40" fill="none">
<circle cx="20" cy="20" r="20" fill="#58E3D0" fill-opacity="0.35"/>
<path d="M31.3854 11H9.6148C9.27531 11 9 11.2693 9 11.6014V14.375V28.3986C9 28.7307 9.27531 29 9.6148 29H31.3852C31.7247 29 32 28.7307 32 28.3986V14.375V11.6014C32.0002 11.2693 31.7249 11 31.3854 11ZM30.8502 27.875H10.15V15.5H30.8502V27.875ZM10.15 14.375V12.125H30.8502V14.375H10.15Z" fill="#008572"/>
<path d="M11.2998 13.7C11.5539 13.7 11.7599 13.4986 11.7599 13.25C11.7599 13.0015 11.5539 12.8 11.2998 12.8C11.0458 12.8 10.8398 13.0015 10.8398 13.25C10.8398 13.4986 11.0458 13.7 11.2998 13.7Z" fill="#008572"/>
<path d="M13.0254 13.7C13.2795 13.7 13.4854 13.4986 13.4854 13.25C13.4854 13.0015 13.2795 12.8 13.0254 12.8C12.7714 12.8 12.5654 13.0015 12.5654 13.25C12.5654 13.4986 12.7714 13.7 13.0254 13.7Z" fill="#008572"/>
<path d="M14.75 13.7C15.0041 13.7 15.21 13.4986 15.21 13.25C15.21 13.0015 15.0041 12.8 14.75 12.8C14.496 12.8 14.29 13.0015 14.29 13.25C14.29 13.4986 14.496 13.7 14.75 13.7Z" fill="#008572"/>
<path d="M16.3868 25.2614C16.2111 25.4333 15.9259 25.4333 15.7502 25.2614L12.5904 22.1702C12.3813 21.9656 12.3813 21.6342 12.5904 21.4299L15.7504 18.3386C15.9261 18.1667 16.2113 18.1667 16.387 18.3386L16.5349 18.4833C16.7265 18.6707 16.7265 18.9747 16.5349 19.1624L13.863 21.776C13.8494 21.7892 13.8494 21.8108 13.863 21.8241L16.5635 24.4658C16.7392 24.6377 16.7392 24.9167 16.5635 25.0886L16.3868 25.2614Z" fill="#008572"/>
<path d="M24.6444 25.2614C24.8201 25.4333 25.1053 25.4333 25.281 25.2614L28.441 22.1702C28.6501 21.9656 28.6501 21.6342 28.441 21.4299L25.281 18.3386C25.1053 18.1667 24.8201 18.1667 24.6444 18.3386L24.4965 18.4833C24.3049 18.6707 24.3049 18.9747 24.4965 19.1624L27.1682 21.776C27.1818 21.7892 27.1818 21.8108 27.1682 21.8241L24.4677 24.4658C24.292 24.6377 24.292 24.9167 24.4677 25.0886L24.6444 25.2614Z" fill="#008572"/>
<path d="M23.1188 18.1896C23.0873 18.0769 23.0114 17.9811 22.9079 17.9232L22.691 17.802C22.4753 17.6814 22.2002 17.7547 22.0769 17.9658L17.9236 25.076C17.8642 25.1775 17.8488 25.2976 17.8801 25.4103C17.9116 25.5231 17.9875 25.6189 18.091 25.6767L18.3079 25.798C18.5236 25.9186 18.7987 25.8453 18.922 25.6342L23.0756 18.524C23.1347 18.4225 23.1504 18.3021 23.1188 18.1896Z" fill="#008572"/>
</svg>