<svg xmlns="http://www.w3.org/2000/svg" width="40" height="40" viewBox="0 0 40 40" fill="none">
<circle cx="20" cy="20" r="20" fill="#58E3D0" fill-opacity="0.35"/>
<path d="M30.2758 25.945V24.6749C30.2752 24.1319 30.0479 23.6113 29.6439 23.2274C29.2399 22.8434 28.6921 22.6274 28.1207 22.6268H19.931V19.7595H24.4405C25.1639 19.7594 25.8596 19.495 26.3836 19.021C26.9075 18.547 27.2196 17.8996 27.2552 17.213C27.2908 16.5263 27.0471 15.853 26.5747 15.3323C26.1023 14.8116 25.4373 14.4835 24.7174 14.4159C24.4996 13.7556 24.0661 13.1785 23.4797 12.7682C22.8933 12.358 22.1846 12.136 21.4565 12.1344C21.0675 12.135 20.6817 12.2005 20.3166 12.3279C19.8054 11.762 19.1306 11.3512 18.3759 11.1464C17.6213 10.9416 16.8199 10.9519 16.0714 11.1759C15.3228 11.3999 14.6599 11.8278 14.1648 12.4065C13.6698 12.9853 13.3645 13.6894 13.2866 14.4315C12.5824 14.5302 11.9436 14.8784 11.4984 15.4063C11.0533 15.9341 10.8348 16.6025 10.8869 17.2771C10.9389 17.9518 11.2577 18.5827 11.7791 19.0432C12.3006 19.5036 12.9861 19.7596 13.6979 19.7595H19.069V22.6268H10.8793C10.3079 22.6274 9.76015 22.8434 9.35613 23.2274C8.9521 23.6113 8.72482 24.1319 8.72415 24.6749V25.945C8.20085 26.0465 7.73586 26.3291 7.41932 26.7379C7.10278 27.1467 6.95724 27.6526 7.01092 28.1576C7.0646 28.6625 7.31367 29.1306 7.70986 29.471C8.10604 29.8113 8.6211 29.9998 9.15518 29.9998C9.68927 29.9998 10.2043 29.8113 10.6005 29.471C10.9967 29.1306 11.2458 28.6625 11.2995 28.1576C11.3531 27.6526 11.2076 27.1467 10.8911 26.7379C10.5745 26.3291 10.1095 26.0465 9.58622 25.945V24.6749C9.5866 24.3491 9.72295 24.0367 9.96538 23.8063C10.2078 23.576 10.5365 23.4464 10.8793 23.446H19.069V25.9037C19.0697 25.9173 19.0711 25.9309 19.0733 25.9444C18.5494 26.0449 18.0835 26.3269 17.7661 26.7355C17.4487 27.1442 17.3023 27.6503 17.3555 28.1557C17.4087 28.6611 17.6576 29.1297 18.0539 29.4705C18.4501 29.8113 18.9655 30 19.5 30C20.0345 30 20.5499 29.8113 20.9461 29.4705C21.3424 29.1297 21.5913 28.6611 21.6445 28.1557C21.6977 27.6503 21.5513 27.1442 21.2339 26.7355C20.9165 26.3269 20.4506 26.0449 19.9267 25.9444C19.9289 25.9309 19.9303 25.9173 19.931 25.9037V23.446H28.1207C28.4635 23.4464 28.7922 23.576 29.0346 23.8064C29.2771 24.0367 29.4134 24.3491 29.4138 24.6749V25.945C28.8905 26.0465 28.4255 26.3291 28.109 26.7379C27.7924 27.1467 27.6469 27.6526 27.7006 28.1576C27.7542 28.6625 28.0033 29.1306 28.3995 29.471C28.7957 29.8113 29.3107 29.9998 29.8448 29.9998C30.3789 29.9998 30.894 29.8113 31.2901 29.471C31.6863 29.1306 31.9354 28.6625 31.9891 28.1576C32.0428 27.6526 31.8972 27.1467 31.5807 26.7379C31.2641 26.3291 30.7991 26.0465 30.2758 25.945ZM10.4483 27.9518C10.4483 28.1948 10.3724 28.4324 10.2304 28.6345C10.0883 28.8366 9.88632 28.9941 9.65004 29.0871C9.41375 29.1801 9.15376 29.2044 8.90292 29.157C8.65208 29.1096 8.42167 28.9926 8.24083 28.8207C8.05999 28.6489 7.93683 28.4299 7.88694 28.1915C7.83704 27.9532 7.86265 27.7061 7.96052 27.4815C8.05839 27.257 8.22413 27.0651 8.43678 26.93C8.64943 26.795 8.89944 26.723 9.15519 26.723C9.49802 26.7233 9.82671 26.8529 10.0691 27.0833C10.3116 27.3136 10.4479 27.626 10.4483 27.9518ZM20.7931 27.9518C20.7931 28.1948 20.7173 28.4324 20.5752 28.6345C20.4331 28.8366 20.2311 28.9941 19.9949 29.0871C19.7586 29.1801 19.4986 29.2044 19.2477 29.157C18.9969 29.1096 18.7665 28.9926 18.5856 28.8207C18.4048 28.6489 18.2816 28.4299 18.2318 28.1915C18.1819 27.9532 18.2075 27.7061 18.3053 27.4815C18.4032 27.257 18.569 27.0651 18.7816 26.93C18.9942 26.795 19.2443 26.723 19.5 26.723C19.8428 26.7233 20.1715 26.8529 20.4139 27.0833C20.6564 27.3136 20.7927 27.626 20.7931 27.9518ZM13.6979 18.9403C13.4408 18.9405 13.1862 18.8927 12.9486 18.7994C12.711 18.7061 12.4951 18.5692 12.3133 18.3965C12.1314 18.2239 11.9871 18.0189 11.8887 17.7932C11.7902 17.5675 11.7395 17.3256 11.7395 17.0813C11.7395 16.837 11.7902 16.5951 11.8887 16.3694C11.9871 16.1438 12.1314 15.9387 12.3133 15.7661C12.4951 15.5934 12.711 15.4566 12.9486 15.3633C13.1862 15.27 13.4408 15.2221 13.6979 15.2223C13.7545 15.2224 13.8106 15.2118 13.8629 15.1912C13.9152 15.1706 13.9627 15.1404 14.0027 15.1024C14.0427 15.0644 14.0745 15.0192 14.0962 14.9695C14.1178 14.9198 14.1289 14.8665 14.1289 14.8127C14.1283 14.1795 14.3392 13.5625 14.7312 13.0505C15.1232 12.5385 15.6761 12.1579 16.3103 11.9636C16.9444 11.7692 17.6271 11.7712 18.26 11.9691C18.8929 12.1671 19.4434 12.5508 19.8321 13.0651C19.8909 13.143 19.9767 13.1988 20.0745 13.2226C20.1722 13.2464 20.2757 13.2367 20.3667 13.1953C20.7063 13.0382 21.0788 12.9556 21.4565 12.9537C22.0455 12.9547 22.616 13.1489 23.0718 13.5033C23.5276 13.8577 23.8408 14.3508 23.9585 14.8992C23.9781 14.9919 24.0309 15.0754 24.108 15.1353C24.185 15.1953 24.2816 15.228 24.3811 15.2279C24.3963 15.2279 24.4295 15.2253 24.4573 15.2223C24.9746 15.2266 25.4691 15.4255 25.8325 15.7753C26.1959 16.1252 26.3987 16.5977 26.3965 17.0893C26.3942 17.5809 26.1872 18.0516 25.8206 18.3985C25.454 18.7454 24.9578 18.9402 24.4405 18.9403L13.6979 18.9403ZM29.8448 29.1806C29.5891 29.1806 29.3391 29.1086 29.1264 28.9735C28.9138 28.8385 28.748 28.6466 28.6502 28.422C28.5523 28.1975 28.5267 27.9504 28.5766 27.712C28.6265 27.4737 28.7496 27.2547 28.9305 27.0829C29.1113 26.911 29.3417 26.794 29.5926 26.7466C29.8434 26.6991 30.1034 26.7235 30.3397 26.8165C30.576 26.9095 30.7779 27.067 30.92 27.2691C31.0621 27.4712 31.1379 27.7087 31.1379 27.9518C31.1376 28.2776 31.0012 28.59 30.7588 28.8203C30.5163 29.0507 30.1877 29.1803 29.8448 29.1806Z" fill="#008572"/>
</svg>