<svg xmlns="http://www.w3.org/2000/svg" width="40" height="40" viewBox="0 0 40 40" fill="none">
<circle cx="20" cy="20" r="20" fill="#58E3D0" fill-opacity="0.35"/>
<path d="M22.3263 12C20.6238 12 19.1446 12.855 18.2099 14.1328C17.5338 13.6877 16.7292 13.4244 15.8608 13.4244C13.4961 13.4244 11.5653 15.3467 11.5653 17.7124C11.5653 17.7953 11.5753 17.871 11.5803 17.951C10.0656 18.6891 9 20.2061 9 22.0003C9 24.5068 11.0415 26.5568 13.549 26.5568H25.4435C27.9511 26.5568 30 24.5077 30 22.0003C30 20.1883 28.9141 18.6583 27.375 17.9286C27.4155 17.667 27.4645 17.4093 27.4645 17.1381C27.4645 14.3039 25.1608 12 22.3263 12ZM22.3263 12.9545C24.6454 12.9545 26.5099 14.8193 26.5099 17.1381C26.5099 17.4641 26.4749 17.7836 26.4055 18.0852C26.3802 18.1977 26.3965 18.3156 26.4513 18.417C26.5061 18.5185 26.5958 18.5966 26.7038 18.6371C28.0692 19.1465 29.0455 20.4528 29.0455 22.0003C29.0455 23.991 27.4344 25.6023 25.4435 25.6023H13.549C11.5581 25.6023 9.95455 23.992 9.95455 22.0003C9.95455 20.4679 10.9072 19.1724 12.2514 18.652C12.3506 18.6129 12.4339 18.5418 12.488 18.4499C12.542 18.3579 12.5638 18.2506 12.5497 18.1449C12.5303 17.9969 12.5199 17.8578 12.5199 17.7124C12.5199 15.8639 14.011 14.3789 15.8608 14.3789C16.6804 14.3789 17.4205 14.668 18.0011 15.1545C18.0544 15.1985 18.1166 15.2305 18.1835 15.2481C18.2503 15.2657 18.3202 15.2686 18.3883 15.2565C18.4564 15.2444 18.5211 15.2177 18.5778 15.1782C18.6345 15.1387 18.682 15.0874 18.717 15.0277C19.4451 13.7875 20.7826 12.9545 22.3263 12.9545Z" fill="#008572"/>
</svg>