<svg xmlns="http://www.w3.org/2000/svg" width="40" height="40" viewBox="0 0 40 40" fill="none">
<circle cx="20" cy="20" r="20" fill="#58E3D0" fill-opacity="0.35"/>
<path d="M23.1205 18.6064L17.0597 16.5862C16.9568 16.552 16.8438 16.5787 16.7673 16.6552C16.6907 16.7317 16.6641 16.845 16.6982 16.9477L18.7185 23.0085C18.7577 23.1259 18.8675 23.2038 18.9894 23.2038C18.9979 23.2038 19.0066 23.2034 19.0152 23.2027C19.1472 23.1907 19.2536 23.0897 19.2723 22.9585L19.7472 19.6352L23.0706 19.1603C23.2017 19.1416 23.3027 19.0351 23.3147 18.9032C23.3266 18.7712 23.2462 18.6483 23.1205 18.6064ZM19.4542 19.0999C19.3286 19.1177 19.2298 19.2165 19.2119 19.3422L18.8779 21.6795L17.421 17.309L21.7916 18.7659L19.4542 19.0999Z" fill="#008572"/>
<path d="M30.7143 9H27.8571C27.6994 9 27.5714 9.12793 27.5714 9.28571V10.4286H21.7143V9.28571C21.7143 9.12793 21.5864 9 21.4286 9H18.5714C18.4136 9 18.2857 9.12793 18.2857 9.28571V10.4286H12.4286V9.28571C12.4286 9.12793 12.3006 9 12.1429 9H9.28571C9.12793 9 9 9.12793 9 9.28571V12.1429C9 12.3006 9.12793 12.4286 9.28571 12.4286H10.4286V18.2857H9.28571C9.12793 18.2857 9 18.4136 9 18.5714V21.4286C9 21.5864 9.12793 21.7143 9.28571 21.7143H10.4286V27.5714H9.28571C9.12793 27.5714 9 27.6994 9 27.8571V30.7143C9 30.8721 9.12793 31 9.28571 31H12.1429C12.3006 31 12.4286 30.8721 12.4286 30.7143V29.5714H18.2857V30.7143C18.2857 30.8721 18.4136 31 18.5714 31H21.4286C21.5864 31 21.7143 30.8721 21.7143 30.7143V29.5714H27.5714V30.7143C27.5714 30.8721 27.6994 31 27.8571 31H30.7143C30.8721 31 31 30.8721 31 30.7143V27.8571C31 27.6994 30.8721 27.5714 30.7143 27.5714H29.5714V21.7143H30.7143C30.8721 21.7143 31 21.5864 31 21.4286V18.5714C31 18.4136 30.8721 18.2857 30.7143 18.2857H29.5714V12.4286H30.7143C30.8721 12.4286 31 12.3006 31 12.1429V9.28571C31 9.12793 30.8721 9 30.7143 9ZM18.8571 11V10.4286V9.57143H21.1429V10.4286V11V11.8571H18.8571V11ZM9.57143 11.8571V9.57143H11.8571V10.4286V11V11.8571H11H10.4286H9.57143ZM9.57143 21.1429V18.8571H10.4286H11H11.8571V21.1429H11H10.4286H9.57143ZM11.8571 29V29.5714V30.4286H9.57143V28.1429H10.4286H11H11.8571V29ZM21.1429 29V29.5714V30.4286H18.8571V29.5714V29V28.1429H21.1429V29ZM27.5714 27.8571V29H21.7143V27.8571C21.7143 27.6994 21.5864 27.5714 21.4286 27.5714H18.5714C18.4136 27.5714 18.2857 27.6994 18.2857 27.8571V29H12.4286V27.8571C12.4286 27.6994 12.3006 27.5714 12.1429 27.5714H11V21.7143H12.1429C12.3006 21.7143 12.4286 21.5864 12.4286 21.4286V18.5714C12.4286 18.4136 12.3006 18.2857 12.1429 18.2857H11V12.4286H12.1429C12.3006 12.4286 12.4286 12.3006 12.4286 12.1429V11H18.2857V12.1429C18.2857 12.3006 18.4136 12.4286 18.5714 12.4286H21.4286C21.5864 12.4286 21.7143 12.3006 21.7143 12.1429V11H27.5714V12.1429C27.5714 12.3006 27.6994 12.4286 27.8571 12.4286H29V18.2857H27.8571C27.6994 18.2857 27.5714 18.4136 27.5714 18.5714V21.4286C27.5714 21.5864 27.6994 21.7143 27.8571 21.7143H29V27.5714H27.8571C27.6994 27.5714 27.5714 27.6994 27.5714 27.8571ZM30.4286 28.1429V30.4286H28.1429V29.5714V29V28.1429H29H29.5714H30.4286ZM30.4286 18.8571V21.1429H29.5714H29H28.1429V18.8571H29H29.5714H30.4286ZM30.4286 11.8571H29.5714H29H28.1429V11V10.4286V9.57143H30.4286V11.8571Z" fill="#008572"/>
</svg>