<svg xmlns="http://www.w3.org/2000/svg" width="40" height="40" viewBox="0 0 40 40" fill="none">
<circle cx="20" cy="20" r="20" fill="#58E3D0" fill-opacity="0.35"/>
<path d="M20.5 10C17.5597 10 12 10.4846 12 12.3201V28.6735C12 30.5137 17.5597 31 20.5 31C23.4397 31 29 30.5137 29 28.6735V12.3201C29 10.4846 23.4397 10 20.5 10ZM20.5 10.8652C25.5375 10.8652 28.1356 11.8848 28.1356 12.3201C28.1356 12.7573 25.5375 13.7811 20.5 13.7811C15.4619 13.7811 12.8644 12.7573 12.8644 12.3201C12.8644 11.8848 15.4619 10.8652 20.5 10.8652ZM20.5 30.1348C15.4619 30.1348 12.8644 29.1105 12.8644 28.6735V24.3319C14.5418 25.2654 18.2723 25.5447 20.5 25.5447C22.7283 25.5447 26.4582 25.2657 28.1356 24.3322V28.6738C28.1356 29.1105 25.5375 30.1348 20.5 30.1348ZM20.5 24.6801C15.4619 24.6801 12.8644 23.6598 12.8644 23.2246V18.883C14.5418 19.8165 18.2723 20.0958 20.5 20.0958C22.7283 20.0958 26.4582 19.8165 28.1356 18.883V23.2243C28.1356 23.6595 25.5375 24.6801 20.5 24.6801ZM20.5 19.2306C15.4619 19.2306 12.8644 18.2103 12.8644 17.7757V13.4306C14.5418 14.3667 18.2723 14.6463 20.5 14.6463C22.7283 14.6463 26.4582 14.3667 28.1356 13.4306V17.7757C28.1356 18.2103 25.5375 19.2306 20.5 19.2306Z" fill="#008572"/>
</svg>