<svg xmlns="http://www.w3.org/2000/svg" width="40" height="40" viewBox="0 0 40 40" fill="none">
<circle cx="20" cy="20" r="20" fill="#58E3D0" fill-opacity="0.35"/>
<path d="M29.9299 18.2L24.5676 10.2C24.4783 10.0667 24.3442 10 24.1878 10C24.0314 10 23.8974 10.0667 23.808 10.2L21.6854 13.3556L21.7078 13.1778C21.7301 13.0444 21.6854 12.9111 21.6184 12.8222C21.529 12.7333 21.4173 12.6667 21.2833 12.6667H15.921C15.787 12.6667 15.6753 12.7333 15.5859 12.8222C15.4965 12.9111 15.4742 13.0444 15.4742 13.1778L15.8763 15.6C15.9657 16.1778 16.2338 16.6889 16.5913 17.0889H16.1668C13.4633 16.8889 13.0165 15.2889 13.0165 15.2C12.9718 14.9556 12.726 14.8222 12.4803 14.8667C12.2345 14.9111 12.0781 15.1556 12.1451 15.4C12.1675 15.4667 12.4356 16.6 13.7985 17.3556C12.6813 17.6889 11.5195 18.3111 11.028 19.6222C10.9386 19.8444 11.0727 20.1111 11.2961 20.2C11.3408 20.2222 11.4078 20.2222 11.4525 20.2222C11.6312 20.2222 11.81 20.1111 11.877 19.9333C12.4356 18.4222 14.3794 18.0889 15.4295 18.0222C15.072 18.2444 14.7145 18.5111 14.4017 18.8C12.8154 20.2889 12.1228 22.6 12.6143 24.8L13.6868 29.6444C13.7315 29.8444 13.9102 30 14.1336 30H23.0707C23.2718 30 23.4729 29.8444 23.5175 29.6444L24.1208 26.8889H27.3158C27.5616 26.8889 27.7626 26.6889 27.7626 26.4444V18.8889H29.5501C29.7065 18.8889 29.8629 18.8 29.9522 18.6444C30.0192 18.5111 30.0192 18.3333 29.9299 18.2ZM16.4573 13.5556H20.7694L20.4566 15.4667C20.3002 16.4222 19.5182 17.1111 18.6022 17.1111C17.6861 17.1111 16.9041 16.4222 16.7477 15.4667L16.4573 13.5556ZM23.7186 24.6222L22.7132 29.1111H14.4911L13.4857 24.6222C13.0612 22.7111 13.6421 20.7333 15.005 19.4444C15.9881 18.5111 17.2616 18 18.6022 18C19.9427 18 21.2162 18.5111 22.1993 19.4444C23.5622 20.7333 24.1431 22.7111 23.7186 24.6222ZM27.3158 18C27.07 18 26.8689 18.2 26.8689 18.4444V26H24.3219L24.59 24.8C25.0815 22.5778 24.4112 20.2889 22.8026 18.8C22.0876 18.1333 21.2386 17.6444 20.3449 17.3778C20.8588 16.9556 21.2162 16.3333 21.328 15.6222L21.3503 15.4667L24.1878 11.2444L28.7234 18H27.3158ZM20.3672 24.8889C20.2332 25.4889 19.7193 25.9778 19.049 26.1556V26.6667C19.049 26.9111 18.8479 27.1111 18.6022 27.1111C18.3564 27.1111 18.1553 26.9111 18.1553 26.6667V26.2C17.6638 26.1333 17.2393 25.9333 16.9265 25.6C16.7701 25.4222 16.7701 25.1333 16.9488 24.9778C17.1275 24.8222 17.418 24.8222 17.5744 25C17.8202 25.2667 18.2447 25.4 18.6692 25.3333C19.0713 25.2667 19.4065 25.0222 19.4735 24.7333C19.5182 24.5556 19.3395 24.3556 19.0937 24.2667H19.0713L17.7755 23.6889H17.7531C17.0829 23.4222 16.703 22.8444 16.8371 22.2444C16.9711 21.6444 17.485 21.1556 18.1553 20.9778V20.4444C18.1553 20.2 18.3564 20 18.6022 20C18.8479 20 19.049 20.2 19.049 20.4444V20.9111C19.5405 20.9778 19.9651 21.1778 20.2779 21.5111C20.4343 21.6889 20.4343 21.9778 20.2555 22.1333C20.0768 22.2889 19.7863 22.2889 19.6299 22.1111C19.3841 21.8444 18.9596 21.7111 18.5351 21.7778C18.133 21.8444 17.7978 22.0889 17.7308 22.3778C17.6861 22.5556 17.8648 22.7556 18.1106 22.8444C18.1106 22.8444 18.1106 22.8444 18.133 22.8444L19.4288 23.4C20.0991 23.6889 20.5013 24.2667 20.3672 24.8889Z" fill="#008572"/>
</svg>